<svg xmlns="http://www.w3.org/2000/svg" aria-hidden="true" style="position:absolute;width:0;height:0;overflow:hidden"><defs><symbol 
id="icon-folder-closed-regular" viewBox="0 0 32 32"><path d="M4 2C1.794 2 0 3.794 0 6v20c0 2.206 1.794 4 4 4h24c2.206 0 4-1.794 
4-4V10c0-2.206-1.794-4-4-4h-9.881l-2.681-2.681A4.5 4.5 0 0 0 12.257 2H4.001zM3 6c0-.55.45-1 1-1h8.256c.4 0 .781.156 1.063.438l2.831 2.831A2.501
 2.501 0 0 0 17.919 9H28c.55 0 1 .45 1 1v2H3V6zm0 9h26v11c0 .55-.45 1-1 1H4c-.55 0-1-.45-1-1V15z"/></symbol><symbol id="icon-clock-regular" 
 viewBox="0 0 32 32"><path d="M29 16c0 7.18-5.82 13-13 13S3 23.18 3 16 8.82 3 16 3s13 5.82 13 13zM0 16c0 8.837 7.163 16 16 16s16-7.163 
 16-16S24.837 0 16 0 0 7.163 0 16zm14.5-8.5V16c0 .5.25.969.669 1.25l6 4c.688.462 1.619.275 2.081-.419s.275-1.619-.419-2.081L17.5 
 15.2V7.5c0-.831-.669-1.5-1.5-1.5s-1.5.669-1.5 1.5z"/></symbol><symbol id="icon-hand-point-up-regular" viewBox="0 0 24 32"><path 
 d="M4 4v11.1c.325-.063.656-.1 1-.1h1V4c0-.55-.45-1-1-1s-1 .45-1 1zm1 14c-1.106 0-2 .894-2 2v1.5c0 4.144 3.356 7.5 7.5 7.5h3a7.5 7.5 0 0 0 
 7.087-5.044 4.008 4.008 0 0 1-3.693-1.431 4.02 4.02 0 0 1-4.394-.4A3.986 3.986 0 0 1 10 23H7.5c-.831 0-1.5-.669-1.5-1.5S6.669 20 7.5 
 20H10c.55 0 1-.45 1-1s-.45-1-1-1H5zm-5 2a5 5 0 0 1 1-3V4c0-2.206 1.794-4 4-4s4 1.794 4 4v5.125a4.007 4.007 0 0 1 4.6 2.125 4.008 4.008 0 0 1 
 4.506 1.225A4.004 4.004 0 0 1 24 16v5.5C24 27.3 19.3 32 13.5 32h-3C4.7 32 0 27.3 0 21.5V20zm21-4c0-.55-.45-1-1-1s-1 .45-1 1v4c0 .55.45 1 1 
 1s1-.45 1-1v-4zm-11-1c.344 0 .681.044 1 .125V13c0-.55-.45-1-1-1s-1 .45-1 1v2h1zm4 1.5V19c0 .55.45 1 1 1s1-.45 1-1v-4c0-.55-.45-1-1-1s-1 .45-1 
 1v1.5z"/></symbol></defs></svg>